<svg width="25" height="25" viewBox="0 0 25 25" fill="none" xmlns="http://www.w3.org/2000/svg">
<path d="M24.415 6.17125L18.8288 0.586253C18.643 0.400488 18.4225 0.253128 18.1799 0.15259C17.9372 0.0520518 17.6771 0.000305176 17.4144 0.000305176C17.1517 0.000305176 16.8916 0.0520518 16.6489 0.15259C16.4062 0.253128 16.1857 0.400488 16 0.586253L0.58626 16C0.399734 16.185 0.251852 16.4053 0.151209 16.648C0.0505661 16.8907 -0.000829299 17.151 1.01187e-05 17.4138V23C1.01187e-05 23.5304 0.210724 24.0391 0.585796 24.4142C0.960869 24.7893 1.46958 25 2.00001 25H23C23.2652 25 23.5196 24.8946 23.7071 24.7071C23.8947 24.5196 24 24.2652 24 24C24 23.7348 23.8947 23.4804 23.7071 23.2929C23.5196 23.1054 23.2652 23 23 23H10.415L24.415 9C24.6008 8.81428 24.7481 8.59378 24.8487 8.3511C24.9492 8.10842 25.001 7.84831 25.001 7.58563C25.001 7.32295 24.9492 7.06284 24.8487 6.82016C24.7481 6.57747 24.6008 6.35698 24.415 6.17125ZM7.58626 23H2.00001V17.4138L13 6.41375L18.5863 12L7.58626 23ZM20 10.5863L14.415 5L17.415 2L23 7.58625L20 10.5863Z" fill="#10B981"/>
</svg>
