<svg width="32" height="32" viewBox="0 0 32 32" fill="none" xmlns="http://www.w3.org/2000/svg">
<rect width="32" height="32" rx="16" fill="#FF5555"/>
<path d="M16 13.5926C15.2996 13.5928 14.6226 13.8395 14.0929 14.2875C13.5632 14.7356 13.216 15.355 13.1149 16.0327C13.0138 16.7104 13.1654 17.401 13.5421 17.9784C13.9189 18.5557 14.4955 18.9812 15.1667 19.1771V20.9259C15.1667 21.142 15.2545 21.3493 15.4107 21.5021C15.567 21.6549 15.779 21.7407 16 21.7407C16.221 21.7407 16.433 21.6549 16.5893 21.5021C16.7455 21.3493 16.8333 21.142 16.8333 20.9259V19.1771C17.5045 18.9812 18.0811 18.5557 18.4579 17.9784C18.8346 17.401 18.9862 16.7104 18.8851 16.0327C18.784 15.355 18.4368 14.7356 17.9071 14.2875C17.3774 13.8395 16.7004 13.5928 16 13.5926ZM16 17.6667C15.7528 17.6667 15.5111 17.595 15.3055 17.4607C15.1 17.3264 14.9398 17.1355 14.8452 16.9122C14.7505 16.6888 14.7258 16.4431 14.774 16.206C14.8222 15.9689 14.9413 15.7511 15.1161 15.5802C15.2909 15.4093 15.5137 15.2929 15.7561 15.2457C15.9986 15.1985 16.2499 15.2228 16.4784 15.3153C16.7068 15.4078 16.902 15.5644 17.0393 15.7654C17.1767 15.9664 17.25 16.2027 17.25 16.4444C17.25 16.7686 17.1183 17.0795 16.8839 17.3087C16.6495 17.5379 16.3315 17.6667 16 17.6667ZM24.3333 10.3333H21V7.88889C21 6.59227 20.4732 5.34877 19.5355 4.43192C18.5979 3.51508 17.3261 3 16 3C14.6739 3 13.4021 3.51508 12.4645 4.43192C11.5268 5.34877 11 6.59227 11 7.88889V10.3333H7.66667C7.22464 10.3333 6.80072 10.505 6.48816 10.8106C6.17559 11.1163 6 11.5308 6 11.963V23.3704C6 23.8026 6.17559 24.2171 6.48816 24.5227C6.80072 24.8283 7.22464 25 7.66667 25H24.3333C24.7754 25 25.1993 24.8283 25.5118 24.5227C25.8244 24.2171 26 23.8026 26 23.3704V11.963C26 11.5308 25.8244 11.1163 25.5118 10.8106C25.1993 10.505 24.7754 10.3333 24.3333 10.3333ZM12.6667 7.88889C12.6667 7.02448 13.0179 6.19547 13.643 5.58424C14.2681 4.97301 15.1159 4.62963 16 4.62963C16.8841 4.62963 17.7319 4.97301 18.357 5.58424C18.9821 6.19547 19.3333 7.02448 19.3333 7.88889V10.3333H12.6667V7.88889ZM24.3333 23.3704H7.66667V11.963H24.3333V23.3704Z" fill="white"/>
</svg>
