<svg width="29" height="25" viewBox="0 0 29 25" fill="none" xmlns="http://www.w3.org/2000/svg">
<path d="M4.00875 10H23.9912C24.2906 10.0015 24.5865 9.93581 24.8571 9.80772C25.1277 9.67964 25.3661 9.49244 25.5546 9.25994C25.7432 9.02744 25.8772 8.75557 25.9467 8.46438C26.0162 8.17319 26.0195 7.87011 25.9562 7.5775C25.0275 3.1875 20 0 14 0C8 0 2.9725 3.1875 2.04375 7.5775C1.9805 7.87011 1.98375 8.17319 2.05326 8.46438C2.12277 8.75557 2.25676 9.02744 2.44535 9.25994C2.63394 9.49244 2.87232 9.67964 3.14291 9.80772C3.41349 9.93581 3.70938 10.0015 4.00875 10ZM14 2C18.9775 2 23.2762 4.57625 23.9912 8H4.00875L4 7.99125C4.72375 4.57625 9.0225 2 14 2ZM26.6575 16.06L21.5163 17.935L16.875 16.0713C16.6367 15.976 16.3708 15.976 16.1325 16.0713L11.5075 17.9225L6.875 16.0713C6.64694 15.9801 6.39332 15.9761 6.1625 16.06L0.6625 18.06C0.430045 18.1623 0.245232 18.3493 0.145573 18.5829C0.045914 18.8165 0.0388764 19.0792 0.125889 19.3179C0.212901 19.5565 0.387443 19.753 0.614088 19.8676C0.840732 19.9823 1.1025 20.0063 1.34625 19.935L3 19.3363V20C3 21.3261 3.52678 22.5979 4.46447 23.5355C5.40215 24.4732 6.67392 25 8 25H20C21.3261 25 22.5979 24.4732 23.5355 23.5355C24.4732 22.5979 25 21.3261 25 20V18.7913L27.3412 17.94C27.4725 17.9016 27.5945 17.8366 27.6997 17.7492C27.8049 17.6617 27.891 17.5536 27.9528 17.4315C28.0145 17.3095 28.0505 17.176 28.0586 17.0395C28.0667 16.9029 28.0467 16.7662 27.9999 16.6377C27.953 16.5091 27.8803 16.3916 27.7862 16.2923C27.6921 16.1931 27.5786 16.1141 27.4528 16.0605C27.3269 16.0068 27.1914 15.9795 27.0547 15.9803C26.9179 15.9811 26.7827 16.0099 26.6575 16.065V16.06ZM23 20C23 20.7956 22.6839 21.5587 22.1213 22.1213C21.5587 22.6839 20.7956 23 20 23H8C7.20435 23 6.44129 22.6839 5.87868 22.1213C5.31607 21.5587 5 20.7956 5 20V18.61L6.48375 18.07L11.125 19.9287C11.3633 20.024 11.6292 20.024 11.8675 19.9287L16.4925 18.0775L21.1175 19.9287C21.3456 20.0199 21.5992 20.0239 21.83 19.94L22.9888 19.5187L23 20ZM0 13C0 12.7348 0.105357 12.4804 0.292893 12.2929C0.48043 12.1054 0.734784 12 1 12H27C27.2652 12 27.5196 12.1054 27.7071 12.2929C27.8946 12.4804 28 12.7348 28 13C28 13.2652 27.8946 13.5196 27.7071 13.7071C27.5196 13.8946 27.2652 14 27 14H1C0.734784 14 0.48043 13.8946 0.292893 13.7071C0.105357 13.5196 0 13.2652 0 13Z" fill="white"/>
</svg>
