<svg width="32" height="20" viewBox="0 0 32 20" fill="none" xmlns="http://www.w3.org/2000/svg">
<path d="M18.5001 3.50464C18.5001 3.10682 18.6582 2.72529 18.9395 2.44398C19.2208 2.16268 19.6023 2.00464 20.0001 2.00464H30.0001C30.398 2.00464 30.7795 2.16268 31.0608 2.44398C31.3421 2.72529 31.5001 3.10682 31.5001 3.50464C31.5001 3.90247 31.3421 4.284 31.0608 4.5653C30.7795 4.84661 30.398 5.00464 30.0001 5.00464H20.0001C19.6023 5.00464 19.2208 4.84661 18.9395 4.5653C18.6582 4.284 18.5001 3.90247 18.5001 3.50464ZM30.0001 8.00464H20.0001C19.6023 8.00464 19.2208 8.16268 18.9395 8.44398C18.6582 8.72529 18.5001 9.10682 18.5001 9.50464C18.5001 9.90247 18.6582 10.284 18.9395 10.5653C19.2208 10.8466 19.6023 11.0046 20.0001 11.0046H30.0001C30.398 11.0046 30.7795 10.8466 31.0608 10.5653C31.3421 10.284 31.5001 9.90247 31.5001 9.50464C31.5001 9.10682 31.3421 8.72529 31.0608 8.44398C30.7795 8.16268 30.398 8.00464 30.0001 8.00464ZM30.0001 14.0046H23.0001C22.6023 14.0046 22.2208 14.1627 21.9395 14.444C21.6582 14.7253 21.5001 15.1068 21.5001 15.5046C21.5001 15.9025 21.6582 16.284 21.9395 16.5653C22.2208 16.8466 22.6023 17.0046 23.0001 17.0046H30.0001C30.398 17.0046 30.7795 16.8466 31.0608 16.5653C31.3421 16.284 31.5001 15.9025 31.5001 15.5046C31.5001 15.1068 31.3421 14.7253 31.0608 14.444C30.7795 14.1627 30.398 14.0046 30.0001 14.0046ZM18.9526 17.1296C19.0019 17.3204 19.0131 17.519 18.9856 17.714C18.9581 17.9091 18.8924 18.0969 18.7924 18.2666C18.6923 18.4362 18.5598 18.5846 18.4024 18.7031C18.245 18.8216 18.0659 18.9079 17.8751 18.9571C17.6844 19.0064 17.4858 19.0176 17.2907 18.9901C17.0957 18.9626 16.9079 18.8969 16.7382 18.7969C16.5685 18.6968 16.4202 18.5643 16.3017 18.4069C16.1832 18.2496 16.0969 18.0704 16.0476 17.8796C15.3326 15.1009 12.5176 13.0046 9.50013 13.0046C6.48263 13.0046 3.66763 15.0996 2.95263 17.8796C2.90338 18.0704 2.81705 18.2496 2.69856 18.4069C2.58006 18.5643 2.43173 18.6968 2.26203 18.7969C2.09234 18.8969 1.90459 18.9626 1.70952 18.9901C1.51445 19.0176 1.31587 19.0064 1.12513 18.9571C0.934382 18.9079 0.755205 18.8216 0.597825 18.7031C0.440445 18.5846 0.307945 18.4362 0.207889 18.2666C0.107834 18.0969 0.0421837 17.9091 0.0146858 17.714C-0.0128121 17.519 -0.00161855 17.3204 0.0476271 17.1296C0.720127 14.5171 2.55888 12.3596 4.93638 11.1296C4.01784 10.2244 3.38933 9.06644 3.13082 7.80299C2.8723 6.53955 2.99545 5.22776 3.48462 4.03451C3.97378 2.84126 4.80684 1.82048 5.87781 1.10205C6.94878 0.383618 8.20925 0 9.49888 0C10.7885 0 12.049 0.383618 13.1199 1.10205C14.1909 1.82048 15.024 2.84126 15.5131 4.03451C16.0023 5.22776 16.1255 6.53955 15.8669 7.80299C15.6084 9.06644 14.9799 10.2244 14.0614 11.1296C16.4414 12.3609 18.2801 14.5184 18.9526 17.1296ZM9.50013 10.0046C10.1924 10.0046 10.8691 9.79937 11.4446 9.41479C12.0202 9.0302 12.4688 8.48358 12.7337 7.84403C12.9986 7.20449 13.0679 6.50076 12.9329 5.82183C12.7978 5.14289 12.4645 4.51925 11.975 4.02977C11.4855 3.54029 10.8619 3.20694 10.1829 3.07189C9.50401 2.93685 8.80028 3.00616 8.16074 3.27106C7.52119 3.53597 6.97457 3.98457 6.58998 4.56015C6.2054 5.13572 6.00013 5.81241 6.00013 6.50464C6.00013 6.96427 6.09066 7.4194 6.26655 7.84403C6.44244 8.26867 6.70025 8.65451 7.02525 8.97952C7.68163 9.63589 8.57187 10.0046 9.50013 10.0046Z" fill="white"/>
</svg>
