<svg width="32" height="32" viewBox="0 0 32 32" fill="none" xmlns="http://www.w3.org/2000/svg">
<rect width="32" height="32" rx="16" fill="#FF5555"/>
<path d="M7.42868 13.4H24.5197C24.7757 13.4013 25.0288 13.3461 25.2602 13.2385C25.4917 13.1309 25.6956 12.9737 25.8569 12.7784C26.0182 12.5831 26.1328 12.3547 26.1922 12.1101C26.2517 11.8655 26.2544 11.6109 26.2003 11.3651C25.406 7.6775 21.106 5 15.9742 5C10.8424 5 6.54238 7.6775 5.74802 11.3651C5.69392 11.6109 5.6967 11.8655 5.75615 12.1101C5.8156 12.3547 5.9302 12.5831 6.09151 12.7784C6.25281 12.9737 6.45669 13.1309 6.68813 13.2385C6.91956 13.3461 7.17263 13.4013 7.42868 13.4ZM15.9742 6.68C20.2314 6.68 23.9081 8.84405 24.5197 11.72H7.42868L7.4212 11.7126C8.04022 8.84405 11.7169 6.68 15.9742 6.68ZM26.8001 18.4904L22.4028 20.0654L18.4332 18.4999C18.2293 18.4198 18.0019 18.4198 17.7981 18.4999L13.8424 20.0549L9.88018 18.4999C9.68512 18.4233 9.4682 18.42 9.27078 18.4904L4.56664 20.1704C4.36782 20.2563 4.20975 20.4134 4.12451 20.6096C4.03927 20.8058 4.03325 21.0266 4.10767 21.227C4.18209 21.4274 4.33138 21.5925 4.52523 21.6888C4.71908 21.7851 4.94296 21.8053 5.15145 21.7454L6.5659 21.2424V21.8C6.5659 22.9139 7.01645 23.9822 7.81845 24.7698C8.62045 25.5575 9.70819 26 10.8424 26H21.106C22.2402 26 23.3279 25.5575 24.1299 24.7698C24.9319 23.9822 25.3825 22.9139 25.3825 21.8V20.7846L27.3849 20.0696C27.4972 20.0373 27.6016 19.9828 27.6915 19.9093C27.7815 19.8358 27.8552 19.745 27.908 19.6425C27.9608 19.54 27.9916 19.4279 27.9985 19.3132C28.0054 19.1985 27.9883 19.0836 27.9482 18.9756C27.9082 18.8677 27.846 18.769 27.7655 18.6856C27.685 18.6022 27.5879 18.5359 27.4803 18.4908C27.3727 18.4457 27.2568 18.4228 27.1398 18.4234C27.0228 18.4241 26.9072 18.4483 26.8001 18.4946V18.4904ZM23.6719 21.8C23.6719 22.4683 23.4015 23.1093 22.9203 23.5819C22.4391 24.0545 21.7865 24.32 21.106 24.32H10.8424C10.1619 24.32 9.50923 24.0545 9.02803 23.5819C8.54683 23.1093 8.27649 22.4683 8.27649 21.8V20.6324L9.54554 20.1788L13.5152 21.7401C13.719 21.8202 13.9464 21.8202 14.1503 21.7401L18.106 20.1851L22.0618 21.7401C22.2568 21.8167 22.4737 21.82 22.6712 21.7496L23.6623 21.3957L23.6719 21.8ZM4 15.92C4 15.6972 4.09011 15.4836 4.25051 15.326C4.41091 15.1685 4.62846 15.08 4.8553 15.08H27.0931C27.3199 15.08 27.5375 15.1685 27.6979 15.326C27.8583 15.4836 27.9484 15.6972 27.9484 15.92C27.9484 16.1428 27.8583 16.3564 27.6979 16.514C27.5375 16.6715 27.3199 16.76 27.0931 16.76H4.8553C4.62846 16.76 4.41091 16.6715 4.25051 16.514C4.09011 16.3564 4 16.1428 4 15.92Z" fill="white"/>
</svg>
