<svg width="32" height="32" viewBox="0 0 32 32" fill="none" xmlns="http://www.w3.org/2000/svg">
<circle cx="16" cy="16" r="16" fill="#FF5555"/>
<path d="M18.6826 10.7661C18.6826 10.4521 18.808 10.151 19.0313 9.92898C19.2545 9.70695 19.5573 9.58222 19.8731 9.58222H27.8095C28.1253 9.58222 28.4281 9.70695 28.6513 9.92898C28.8746 10.151 29 10.4521 29 10.7661C29 11.0801 28.8746 11.3813 28.6513 11.6033C28.4281 11.8253 28.1253 11.95 27.8095 11.95H19.8731C19.5573 11.95 19.2545 11.8253 19.0313 11.6033C18.808 11.3813 18.6826 11.0801 18.6826 10.7661ZM27.8095 14.3179H19.8731C19.5573 14.3179 19.2545 14.4426 19.0313 14.6646C18.808 14.8867 18.6826 15.1878 18.6826 15.5018C18.6826 15.8158 18.808 16.1169 19.0313 16.3389C19.2545 16.561 19.5573 16.6857 19.8731 16.6857H27.8095C28.1253 16.6857 28.4281 16.561 28.6513 16.3389C28.8746 16.1169 29 15.8158 29 15.5018C29 15.1878 28.8746 14.8867 28.6513 14.6646C28.4281 14.4426 28.1253 14.3179 27.8095 14.3179ZM27.8095 19.0535H22.254C21.9383 19.0535 21.6355 19.1783 21.4122 19.4003C21.1889 19.6223 21.0635 19.9234 21.0635 20.2374C21.0635 20.5514 21.1889 20.8526 21.4122 21.0746C21.6355 21.2966 21.9383 21.4213 22.254 21.4213H27.8095C28.1253 21.4213 28.4281 21.2966 28.6513 21.0746C28.8746 20.8526 29 20.5514 29 20.2374C29 19.9234 28.8746 19.6223 28.6513 19.4003C28.4281 19.1783 28.1253 19.0535 27.8095 19.0535ZM19.0417 21.52C19.0808 21.6706 19.0897 21.8273 19.0679 21.9813C19.046 22.1352 18.9939 22.2834 18.9145 22.4173C18.8351 22.5513 18.7299 22.6684 18.605 22.7619C18.4801 22.8554 18.3379 22.9235 18.1866 22.9624C18.0352 23.0013 17.8776 23.0101 17.7228 22.9884C17.5679 22.9667 17.4189 22.9149 17.2842 22.8359C17.1496 22.7569 17.0318 22.6524 16.9378 22.5282C16.8438 22.4039 16.7752 22.2625 16.7362 22.112C16.1687 19.9188 13.9346 18.2642 11.5398 18.2642C9.14492 18.2642 6.9108 19.9178 6.34335 22.112C6.30426 22.2625 6.23574 22.4039 6.1417 22.5282C6.04766 22.6524 5.92994 22.7569 5.79526 22.8359C5.66058 22.9149 5.51157 22.9667 5.35676 22.9884C5.20194 23.0101 5.04434 23.0013 4.89295 22.9624C4.74157 22.9235 4.59937 22.8554 4.47446 22.7619C4.34956 22.6684 4.2444 22.5513 4.16499 22.4173C4.08558 22.2834 4.03348 22.1352 4.01166 21.9813C3.98983 21.8273 3.99872 21.6706 4.0378 21.52C4.57153 19.458 6.03085 17.7552 7.91774 16.7844C7.18875 16.0699 6.68994 15.1559 6.48476 14.1587C6.27959 13.1615 6.37733 12.1261 6.76556 11.1843C7.15378 10.2425 7.81493 9.43686 8.66491 8.86982C9.51488 8.30278 10.5153 8 11.5388 8C12.5623 8 13.5626 8.30278 14.4126 8.86982C15.2626 9.43686 15.9237 10.2425 16.312 11.1843C16.7002 12.1261 16.7979 13.1615 16.5928 14.1587C16.3876 15.1559 15.8888 16.0699 15.1598 16.7844C17.0487 17.7561 18.508 19.459 19.0417 21.52ZM11.5398 15.8964C12.0891 15.8964 12.6262 15.7344 13.083 15.4309C13.5398 15.1273 13.8958 14.6959 14.1061 14.1911C14.3163 13.6863 14.3713 13.1309 14.2641 12.595C14.157 12.0592 13.8924 11.5669 13.5039 11.1806C13.1155 10.7943 12.6205 10.5312 12.0817 10.4246C11.5428 10.318 10.9843 10.3727 10.4767 10.5818C9.96918 10.7909 9.53535 11.1449 9.23012 11.5992C8.9249 12.0535 8.76199 12.5876 8.76199 13.134C8.76199 13.4967 8.83384 13.8559 8.97343 14.1911C9.11303 14.5263 9.31764 14.8308 9.57558 15.0873C10.0965 15.6054 10.803 15.8964 11.5398 15.8964Z" fill="white"/>
</svg>
